<svg xmlns="http://www.w3.org/2000/svg" viewBox="0 0 155.26 38.61"><defs><style>.cls-1{fill:#fff;}</style></defs><g id="Слой_2" data-name="Слой 2"><g id="Слой_1-2" data-name="Слой 1"><path class="cls-1" d="M21.52,21.51A2.91,2.91,0,0,1,22.61,24a5.38,5.38,0,0,1-.74,2.91,6.8,6.8,0,0,1-2.17,2.13c-2.05,1.32-4.87,2-8.46,2s-6.35-.94-8.31-2.81A10.27,10.27,0,0,1,0,20.46,21.4,21.4,0,0,1,3.67,8.05,15.09,15.09,0,0,1,11.43,2.4a16.42,16.42,0,0,1,5.11-.84,20.44,20.44,0,0,1,4.09.33,9.75,9.75,0,0,1,2.74,1A4.36,4.36,0,0,1,26,6.75a4.7,4.7,0,0,1-2,3.75,5.7,5.7,0,0,1-3.37,1.43,7.72,7.72,0,0,1-2.16-.21,21.73,21.73,0,0,0,.17-2.51c0-.66,0-1.23,0-1.71a6,6,0,0,0-.25-1.39q-.42-1.56-1.71-1.56A3.79,3.79,0,0,0,14,5.75,12.67,12.67,0,0,0,11.6,9,20.75,20.75,0,0,0,9.11,19a5.59,5.59,0,0,0,1.48,4.12,6.31,6.31,0,0,0,4.64,1.49,8,8,0,0,0,4.6-1.56A8.12,8.12,0,0,0,21.52,21.51Z"/><path class="cls-1" d="M33.86,31.09q-9.27,0-9.28-8.74A15.16,15.16,0,0,1,28,12.15a12.31,12.31,0,0,1,9.91-4.27c3,0,5.33.71,6.88,2.11s2.32,3.59,2.32,6.54q0,6.75-3.63,10.68A12.4,12.4,0,0,1,33.86,31.09ZM35,12.74a16.15,16.15,0,0,0-.91,2.84c-.26,1.14-.57,2.61-.9,4.41a32.65,32.65,0,0,0-.51,6A4,4,0,0,0,33,27.84a1.35,1.35,0,0,0,1.33.72,2.56,2.56,0,0,0,1.58-.47A3.75,3.75,0,0,0,37,26.53,27.12,27.12,0,0,0,38.5,21a40.87,40.87,0,0,0,.74-5.16c0-1,.07-2,.07-2.73A4.85,4.85,0,0,0,39,11.17a1.29,1.29,0,0,0-1.29-.75A2.2,2.2,0,0,0,36.1,11,5.29,5.29,0,0,0,35,12.74Z"/><path class="cls-1" d="M57.35,27.66a1,1,0,0,1,.21,1.45,5.65,5.65,0,0,1-4.81,2,4.46,4.46,0,0,1-3.46-1.48A3.86,3.86,0,0,1,48.19,27a55.25,55.25,0,0,1,1.48-10.09L52.6,1.48a1,1,0,0,1,.93-.84L59.92,0a1,1,0,0,1,1.13,1.23l-3.83,20a23.29,23.29,0,0,0-.72,4.21A2.47,2.47,0,0,0,57.35,27.66Z"/><path class="cls-1" d="M68.85,31.09q-9.28,0-9.29-8.74A15.16,15.16,0,0,1,63,12.15,12.32,12.32,0,0,1,72.9,7.88c3,0,5.33.71,6.87,2.11s2.32,3.59,2.32,6.54q0,6.75-3.63,10.68A12.38,12.38,0,0,1,68.85,31.09Zm1.09-18.35a15.41,15.41,0,0,0-.9,2.84c-.27,1.14-.57,2.61-.91,4.41a32.65,32.65,0,0,0-.51,6A4,4,0,0,0,68,27.84a1.35,1.35,0,0,0,1.33.72,2.54,2.54,0,0,0,1.58-.47A3.75,3.75,0,0,0,72,26.53,27,27,0,0,0,73.49,21a40.35,40.35,0,0,0,.73-5.16c0-1,.07-2,.07-2.73A4.85,4.85,0,0,0,74,11.17a1.28,1.28,0,0,0-1.29-.75,2.2,2.2,0,0,0-1.58.59A5.29,5.29,0,0,0,69.94,12.74Z"/><path class="cls-1" d="M97.19,18.81a.77.77,0,0,1-.5-1.1A10.61,10.61,0,0,0,97.86,13c0-1.21-.44-1.82-1.31-1.82-.68,0-1.37.58-2.07,1.73a10.14,10.14,0,0,0-1.43,4L91,29.66a.77.77,0,0,1-.68.64L83.14,31a.77.77,0,0,1-.83-.91l4-20.8A.76.76,0,0,1,87,8.66L92.36,8a.77.77,0,0,1,.84.9h0a.77.77,0,0,0,1.25.72,7,7,0,0,1,4.88-1.75,5.3,5.3,0,0,1,3.78,1.27A5.08,5.08,0,0,1,104.44,13a5.63,5.63,0,0,1-1.71,4.24,6.37,6.37,0,0,1-4.62,1.65A4.22,4.22,0,0,1,97.19,18.81Z"/><path class="cls-1" d="M105.91,24.29a19.43,19.43,0,0,1,.43-3.75l3.25-17a1.07,1.07,0,0,1,1-.87h7.15a1.07,1.07,0,0,1,1,1.27l-3.14,16.7a19,19,0,0,0-.38,3.44,3.54,3.54,0,0,0,.61,2.22,2.16,2.16,0,0,0,1.76.76,4.87,4.87,0,0,0,1.85-.3,3.34,3.34,0,0,0,1.31-1,12.5,12.5,0,0,0,1.86-5.11L126,3.56A1.07,1.07,0,0,1,127,2.69h4.19A1.08,1.08,0,0,1,132.26,4l-3.14,16.66q-1.18,6-4.43,8.4t-9.41,2.36q-4.68,0-7.17-2A6.14,6.14,0,0,1,105.91,24.29Z"/><path class="cls-1" d="M151.55,27.35a12.16,12.16,0,0,1-4.2,2.77,13.08,13.08,0,0,1-4.83,1,12.14,12.14,0,0,1-2.69-.23.56.56,0,0,0-.68.46L138,37.41a.56.56,0,0,1-.5.47l-7.38.73a.57.57,0,0,1-.61-.68l5.59-28.79a.59.59,0,0,1,.5-.46l5.7-.59a.57.57,0,0,1,.62.67h0a.57.57,0,0,0,.94.53A6.12,6.12,0,0,1,147,7.93a7.73,7.73,0,0,1,6.33,2.65,9.41,9.41,0,0,1,1.94,6.08,18.08,18.08,0,0,1-1,6.29A12.22,12.22,0,0,1,151.55,27.35Zm-11.71.19a.57.57,0,0,0,.21.56,2.94,2.94,0,0,0,1.71.54,3.1,3.1,0,0,0,1.73-.42,3.48,3.48,0,0,0,1.1-1.27q1.26-2.28,2.28-9.19a28.79,28.79,0,0,0,.29-4,5.2,5.2,0,0,0-.44-2.62,1.49,1.49,0,0,0-1.29-.63q-2.56,0-3.42,5Z"/></g></g></svg>